<svg xmlns="http://www.w3.org/2000/svg" id="logo_24dp" fill="#000" viewBox="0 0 24 24" width="24" height="24"><path d="M23.645 21.655h-5.714q-.396.256-.814.476l-.148.073-.101.049a8 8 0 0 1-.559.231l-.119.043c-.466.16-.982.28-1.47.343l-.098.012a8 8 0 0 1-1.332.025 7.8 7.8 0 0 1-2.714-.741l-.109-.055a8 8 0 0 1-.681-.4l-.083-.056H.526l2.007-3.476h-.008a6 6 0 0 0-.228-.1c-.114-.114-.213-.214-.237-.262C1.013 15.964.514 13.912.546 12.006c.032-1.91.595-3.839 1.515-5.454.936-1.607 2.323-3.062 3.959-4.046a11.3 11.3 0 0 1 5.785-1.59c2.126 0 4.156.607 5.794 1.59 1.64.984 3.033 2.438 3.969 4.045.133.231.248.435.36.668.198.415.392.862.546 1.31q.162.479.284.97.118.488.196.985a11.7 11.7 0 0 1-.003 3.429 11.3 11.3 0 0 1-.814 2.795c-.184.417-.399.833-.636 1.233ZM12.086 4.815 3.284 20.063h4.747q-.055-.07-.108-.143l-.097-.137-.066-.099-.13-.202-.065-.108a6 6 0 0 1-.248-.465 6 6 0 0 1-.137-.327l-.043-.118a5 5 0 0 1-.233-1.033 5 5 0 0 1-.026-.71c.037-.745.27-1.559.633-2.21l.07-.12c.092-.147.202-.306.308-.443.188-.239.422-.484.652-.683a5 5 0 0 1 .815-.564c.29-.151.64-.273.96-.335l.063-.011q.329-.047.66-.038c.133.006.288.023.42.045.077.014.17.033.244.052.54.15 1.12.481 1.524.874q.258.268.456.583.072.119.132.244c.167.387.24.909.193 1.322a2.7 2.7 0 0 1-.198.65c-.18.354-.51.73-.842.957a2.3 2.3 0 0 1-.693.264l-.049.007a2.4 2.4 0 0 1-.625-.036 2.3 2.3 0 0 1-.8-.443 2 2 0 0 1-.35-.486 2 2 0 0 1-.168-.63 2.3 2.3 0 0 1 .014-.378c.04-.227.15-.505.257-.687l.025-.038q.214-.28.5-.487c-.003.003.036-.026.1-.058.058-.03.24-.061.386-.077a1.4 1.4 0 0 0-.66-.12 1.36 1.36 0 0 0-.808.204c-.336.18-.59.382-.84.668-.354.38-.575.787-.703 1.29-.115.374-.15.767-.104 1.155.034.457.151.838.377 1.24.115.208.234.393.375.587a5.3 5.3 0 0 0 1.412 1.364c.62.433 1.326.729 2.07.867.7.152 1.424.161 2.128.025a5.3 5.3 0 0 0 1.76-.626 9 9 0 0 0 .682-.422l.134-.092.078-.055a9.3 9.3 0 0 0 2.183-2.163Zm8.802 15.248-.396-.686-.026.032q-.283.337-.591.654ZM20.21 7.324a9.5 9.5 0 0 0-3.415-3.499 9.3 9.3 0 0 0-4.218-1.343l8.009 13.873a9 9 0 0 0 .462-1.177 9.5 9.5 0 0 0 .348-1.44 9.3 9.3 0 0 0-.037-3.316 9.6 9.6 0 0 0-1.15-3.1ZM6.815 3.826A9.5 9.5 0 0 0 3.4 7.324a9.55 9.55 0 0 0-1.32 4.714c-.031 1.647.31 3.232 1.212 4.825l8.315-14.402a9.3 9.3 0 0 0-4.792 1.365"></path><style>@media (prefers-color-scheme: light) { :root { filter: none; } }
@media (prefers-color-scheme: dark) { :root { filter: invert(100%); } }
</style></svg>